<svg xmlns="http://www.w3.org/2000/svg" version="1.1" xmlns:xlink="http://www.w3.org/1999/xlink" xmlns:svgjs="http://svgjs.dev/svgjs" width="1920" height="1080" preserveAspectRatio="none" viewBox="0 0 1920 1080"><g mask="url(&quot;#SvgjsMask1004&quot;)" fill="none"><rect width="1920" height="1080" x="0" y="0" fill="rgba(234, 239, 243, 1)"></rect><path d="M0 0L724.38 0L0 392.23z" fill="rgba(255, 255, 255, .1)"></path><path d="M0 392.23L724.38 0L1065.35 0L0 402.69z" fill="rgba(255, 255, 255, .075)"></path><path d="M0 402.69L1065.35 0L1223.6299999999999 0L0 763.51z" fill="rgba(255, 255, 255, .05)"></path><path d="M0 763.51L1223.6299999999999 0L1497.35 0L0 978.67z" fill="rgba(255, 255, 255, .025)"></path><path d="M1920 1080L1017.14 1080L1920 733.65z" fill="rgba(0, 0, 0, .1)"></path><path d="M1920 733.65L1017.14 1080L471.78 1080L1920 699.4499999999999z" fill="rgba(0, 0, 0, .075)"></path><path d="M1920 699.45L471.78 1080L241.00999999999996 1080L1920 526.7z" fill="rgba(0, 0, 0, .05)"></path><path d="M1920 526.7L241.01 1080L206.60999999999999 1080L1920 432.84000000000003z" fill="rgba(0, 0, 0, .025)"></path></g><defs><mask id="SvgjsMask1004"><rect width="1920" height="1080" fill="#ffffff"></rect></mask></defs></svg>